<svg xmlns="http://www.w3.org/2000/svg"
     width="20"
     height="20"
     enableBackground="new 0 0 512 512"
     viewBox="0 0 24 24">
    <path fill="#f2994a" d="M6.169 12.149a.999.999 0 001.414 0l2.602-2.602a.999.999 0 000-1.414L4.481 2.428a1.455 1.455 0 00-.981-.425l-.134-.004A1.324 1.324 0 002 3.322c0 2.982 1.185 5.842 3.293 7.951z" data-original="#000000"></path>
    <path fill="#f2994a" d="M13.412 12l1.615-1.615c.028-.028.039-.064.062-.094a4.466 4.466 0 002.411.711 4.5 4.5 0 004.5-4.5q0-4.5-4.5-4.5a4.5 4.5 0 00-4.5 4.5c0 .887.265 1.708.708 2.405-.03.024-.067.035-.095.063L2.293 20.291a.999.999 0 101.414 1.414l8.291-8.291 8.293 8.295a.997.997 0 001.414 0 .999.999 0 000-1.414z" data-original="#000000"></path>
</svg>